<?xml version="1.0" encoding="UTF-8"?><svg id="Layer_1" xmlns="http://www.w3.org/2000/svg" width="2.1in" height="2.1in" viewBox="0 0 149.3 149"><path d="m46.3,72.8c-.5.3-4,2.4-8,1-3.8-1.3-6.2-5.2-6-9,.2-4.5,4-8.5,9-9,1.2-2.2,3.6-5.9,8-9,6.1-4.4,12.4-4.9,15-5,.7-1.2,2.3-3.4,5-5,1-.6,4.5-2.6,9-2,6.4.9,9.6,6.3,10,7,3.3.5,9.1,1.9,15,6,4.4,3.1,7.3,6.6,9,9,3.6.4,6.7,2.7,8,6,1.3,3.1.7,6.5-1,9-1.5,2.2-4.9,5.1-8,4-1.7-.6-2.6-2.2-3-3-.8,1-3.5,4.1-8,5-7.1,1.5-12.5-3.5-13-4-1.2.9-5.6,4.3-12,4-4.4-.2-7.6-2-9-3-1.6.8-4.4,1.9-8,2-6.2.1-10.6-2.9-12-4Z" stroke-width="0"/><path d="m46.3,75.8c3,9.3,6,18.7,9,28h42l10-28c-.6.6-5.4,4.9-12,4-4.3-.6-7-3-8-4-1.7,1-4.4,2.4-8,3-6.2,1-11.1-1.1-13-2-1.6.8-4,1.7-7,2-6.3.6-11.1-1.9-13-3Z" stroke-width="0"/><line x1="55.8" y1="82.3" x2="59.8" y2="101.3" fill="none" stroke="#fff" stroke-linecap="round" stroke-miterlimit="10"/><line x1="66.4" y1="82.3" x2="68.4" y2="101.3" fill="none" stroke="#fff" stroke-linecap="round" stroke-miterlimit="10"/><line x1="76.6" y1="82.3" x2="76.6" y2="101.3" fill="none" stroke="#fff" stroke-linecap="round" stroke-miterlimit="10"/><line x1="87.1" y1="82.3" x2="84.2" y2="101.3" fill="none" stroke="#fff" stroke-linecap="round" stroke-miterlimit="10"/><line x1="96.5" y1="82.3" x2="92" y2="101.3" fill="none" stroke="#fff" stroke-linecap="round" stroke-miterlimit="10"/><path d="m140.2,64.9c2.9.4,4.2,2.1,4,4-.2,1.2-.7,2.1-2,3.7-.3.4-.6.9-.6,1.2,0,.7.3,1.2,1.6,1.5l-.3,2.3c-2.9-.4-4.2-2.1-4-4,.2-1.2.7-2.1,2-3.7.3-.4.6-.9.6-1.2,0-.7-.3-1.2-1.6-1.5l.3-2.3Z" stroke-width="0"/><path d="m14.3,66c-1.3.3-1.7.8-1.6,1.5s.3.8.6,1.2c1.3,1.6,1.8,2.4,2,3.7.3,2-1.1,3.6-4,4l-.3-2.3c1.3-.3,1.7-.8,1.6-1.5s-.3-.8-.6-1.2c-1.3-1.6-1.8-2.4-2-3.7-.3-2,1.1-3.6,4-4l.3,2.3Z" stroke-width="0"/><path d="m23.8,56.7l-17.9-9.3-3.5,6.7-2.4-1.2,8.4-16.1,2.4,1.2-3.5,6.7,17.9,9.3-1.4,2.7Z" stroke-width="0"/><path d="m20.8,39c-2.6-2.8-3.9-5.6-3.9-8.6,0-3,1.2-5.6,3.5-7.8,1.5-1.5,3.3-2.4,5.2-2.8,1.9-.4,3.8-.3,5.7.4,1.9.7,3.6,1.9,5.2,3.5,1.6,1.7,2.7,3.5,3.3,5.5.6,2,.6,3.9,0,5.8-.6,1.9-1.6,3.5-3.1,4.9-1.6,1.5-3.3,2.4-5.3,2.8s-3.9.3-5.7-.4c-1.9-.7-3.5-1.8-4.9-3.2Zm2.3-2.1c1.9,2,3.9,3.1,6.1,3.2,2.2.1,4.1-.6,5.7-2.1,1.7-1.6,2.5-3.4,2.4-5.6,0-2.2-1.1-4.3-3.1-6.5-1.3-1.4-2.6-2.3-4-2.9-1.4-.6-2.8-.7-4.2-.4-1.4.3-2.7.9-3.8,2-1.6,1.5-2.4,3.3-2.5,5.4-.1,2.1,1,4.5,3.4,7Z" stroke-width="0"/><path d="m46.4,31.2l-8.7-21.2,9.4-3.9c1.9-.8,3.4-1.2,4.5-1.2,1.1,0,2.2.3,3.2,1,1,.7,1.7,1.7,2.2,2.8.6,1.5.6,3,.1,4.4-.6,1.4-1.8,2.7-3.7,3.8.9,0,1.6.2,2.1.4,1.1.4,2.3,1,3.5,1.9l6.1,4.3-3.5,1.4-4.6-3.3c-1.3-.9-2.4-1.6-3.2-2.1-.8-.5-1.5-.7-2-.8-.5,0-1-.1-1.5,0-.3,0-.9.2-1.6.5l-3.3,1.3,3.9,9.4-2.8,1.2Zm-2.1-13l6-2.5c1.3-.5,2.2-1.1,2.8-1.6.6-.6,1-1.2,1.1-1.9s0-1.4-.2-2.1c-.4-1-1.1-1.7-2.1-2-1-.3-2.3-.2-3.8.4l-6.7,2.8,2.9,7Z" stroke-width="0"/><path d="m65,12.4c0-3.8.9-6.8,2.9-9C69.9,1.2,72.5,0,75.7,0c2.1,0,4,.4,5.7,1.4,1.7,1,3,2.4,4,4.1s1.4,3.8,1.5,6.1c0,2.3-.4,4.4-1.3,6.3-.9,1.9-2.2,3.3-3.9,4.2-1.7,1-3.5,1.5-5.5,1.5-2.2,0-4.1-.4-5.8-1.4-1.7-1-3-2.4-3.9-4.2-.9-1.8-1.4-3.7-1.4-5.7Zm3.1,0c0,2.8.8,4.9,2.4,6.5,1.5,1.6,3.4,2.3,5.6,2.3,2.3,0,4.1-.9,5.6-2.5,1.4-1.6,2.1-3.9,2.1-6.9,0-1.9-.4-3.5-1-4.9-.7-1.4-1.6-2.4-2.8-3.2-1.2-.7-2.6-1.1-4.1-1.1-2.1,0-4,.8-5.5,2.3-1.5,1.5-2.2,4-2.2,7.4Z" stroke-width="0"/><path d="m89.2,23.8l7.9-21.5,2.9,1.1,5.1,21,6.2-16.9,2.7,1-7.9,21.5-2.9-1.1-5.1-21-6.2,16.9-2.7-1Z" stroke-width="0"/><path d="m113.5,35.6l12.7-15.7-5.9-4.7,1.7-2.1,14.1,11.4-1.7,2.1-5.9-4.8-12.7,15.7-2.4-1.9Z" stroke-width="0"/><path d="m131.5,36.1c3.2-2,6.3-2.7,9.2-2.1,2.9.6,5.2,2.3,6.9,5,1.1,1.8,1.7,3.7,1.7,5.7,0,2-.5,3.8-1.5,5.5s-2.6,3.2-4.5,4.4c-2,1.2-4,1.9-6,2.1s-3.9-.2-5.6-1.2-3.1-2.3-4.1-4c-1.1-1.8-1.7-3.7-1.7-5.7s.5-3.8,1.6-5.5,2.4-3.1,4.2-4.1Zm1.6,2.7c-2.3,1.5-3.8,3.2-4.3,5.3s-.2,4.1.9,6c1.2,1.9,2.9,3.1,5,3.5,2.1.4,4.5-.2,7-1.7,1.6-1,2.8-2.1,3.6-3.4.8-1.3,1.3-2.6,1.3-4.1,0-1.4-.4-2.8-1.2-4.1-1.1-1.8-2.7-3-4.8-3.5s-4.6.1-7.5,1.9Z" stroke-width="0"/><path d="m19.4,109.1l.7,3.2c-2.6.5-4.9.3-6.8-.6-2-.9-3.5-2.5-4.6-4.7-1.1-2.3-1.6-4.4-1.3-6.3.2-1.9,1-3.6,2.5-5.2,1.4-1.6,3.1-2.9,5.1-3.9,2.2-1.1,4.3-1.6,6.4-1.6,2.1,0,3.9.6,5.5,1.8s2.9,2.6,3.8,4.5c1,2.1,1.4,4.2,1,6.1-.4,2-1.4,3.7-3.1,5.3l-2-2.4c1.3-1.2,2.1-2.5,2.3-3.8.2-1.3,0-2.6-.7-4-.8-1.6-1.9-2.8-3.2-3.5s-2.7-1-4.3-.8c-1.5.2-3,.6-4.4,1.3-1.8.9-3.3,1.9-4.3,3.1-1.1,1.2-1.7,2.5-1.8,3.9-.1,1.4.1,2.8.8,4.1.8,1.6,1.9,2.7,3.3,3.3,1.4.6,3.1.7,5.1.2Z" stroke-width="0"/><path d="m46.6,115.8l2.3,2.1-9.1,10.2c-1.6,1.8-3,3-4.4,3.7-1.3.7-2.8.9-4.4.6s-3.3-1.2-5-2.7c-1.6-1.5-2.7-3-3.3-4.5-.5-1.5-.6-3,0-4.5.5-1.5,1.6-3.1,3.3-5l9.1-10.2,2.3,2.1-9.1,10.2c-1.4,1.5-2.2,2.8-2.6,3.8-.4,1-.4,2,0,3,.3,1,1,2,2,2.9,1.7,1.5,3.3,2.2,4.7,2.1,1.4-.1,3.1-1.3,5.1-3.5l9.1-10.2Z" stroke-width="0"/><path d="m42.4,140.9l8.3-22.1,8.3,3.1c1.5.5,2.6,1,3.3,1.5,1,.6,1.8,1.3,2.3,2.1.5.8.9,1.7,1,2.8.1,1.1,0,2.2-.5,3.3-.7,1.9-1.9,3.2-3.6,4.1s-4.1.7-7.2-.5l-5.7-2.1-3.4,9-2.9-1.1Zm7.3-10.5l5.7,2.1c1.9.7,3.4.9,4.4.4,1.1-.4,1.8-1.2,2.3-2.5.3-.9.4-1.8.2-2.6-.2-.8-.7-1.5-1.4-2-.4-.3-1.3-.7-2.7-1.2l-5.7-2.1-3,7.9Z" stroke-width="0"/><path d="m85.6,140.2l3.1.7c-.6,2.6-1.8,4.6-3.4,5.9-1.7,1.4-3.7,2.1-6.2,2.1-2.5,0-4.6-.4-6.2-1.4s-2.9-2.5-3.7-4.4c-.9-2-1.3-4.1-1.4-6.3,0-2.5.4-4.6,1.3-6.5.9-1.8,2.2-3.3,3.9-4.2,1.7-1,3.6-1.5,5.7-1.5,2.4,0,4.4.5,6,1.7s2.8,2.8,3.5,5l-3.1.8c-.6-1.7-1.4-2.9-2.4-3.7-1.1-.8-2.4-1.1-4-1.1-1.8,0-3.3.5-4.5,1.4-1.2.9-2,2.1-2.5,3.5-.5,1.5-.7,3-.7,4.5,0,2,.4,3.8,1,5.2.6,1.5,1.5,2.6,2.8,3.3,1.2.7,2.6,1.1,4,1,1.8,0,3.2-.6,4.4-1.6s2-2.5,2.4-4.5Z" stroke-width="0"/><path d="m95.4,147.2l-.6-25.3,3.1-1.3,17.9,18.2-3.3,1.3-5.3-5.6-9.1,3.7.3,7.6-3.1,1.3Zm2.6-11.6l7.4-3-4.8-5.1c-1.4-1.6-2.6-2.9-3.4-3.9.3,1.5.5,3.1.5,4.7l.2,7.4Z" stroke-width="0"/><path d="m122.1,134.3l-16-17.3,2.3-2.1,8,8.6.7-16.6,3.1-2.9-.8,13.8,17.1,3.3-3,2.8-14.3-3.1-.3,5.4,5.6,6-2.3,2.1Z" stroke-width="0"/><path d="m140.9,114.4l-21.1-10.6,7.7-15.2,2.5,1.3-6.3,12.5,6.5,3.3,5.9-11.7,2.5,1.2-5.9,11.7,7.2,3.6,6.5-12.9,2.5,1.3-7.9,15.7Z" stroke-width="0"/></svg>